<svg id="Badge" xmlns="http://www.w3.org/2000/svg" width="300" height="324" viewBox="0 0 500 540">
  <defs>
    <style>
      .feathers-notify-1 { fill: #727c7c; fill-rule: evenodd; }
      .feathers-notify-2 { fill: #de0c0c; }
      .feathers-notify-3 { font-size: 1296px; fill: #fff; text-anchor: middle; font-family: "Open Sans"; font-weight: 700; }
    </style>
  </defs>
  <path id="feathers-notify" data-name="feathers-notify" class="feathers-notify-1" d="M332.084,0.05c14.969,1.48,24.78,74.531,30.806,164.261-25.377,10.113-53.882,4.081-54,7.139-0.137,3.5,29.556,5.4,55.089,5.4,3.52,65.492,6.45,160.69,6.9,216.2,0.131,16.239,36.037,20.954,36.143,53.15,0.095,29.236-24.545,30.65-24.545,30.65s-58.525.6-124.776,0.6c-1.129,0-.042-81.936,11.6-181.05C281.338,193.864,331.2,8,330.084,8c-1.354,0-60.271,160.075-75.235,284.85-13.289,110.807-10.417,184-11.348,184H115.327s-24.8-.312-24.8-27.3c0-41.345,38.892-36.476,38.892-57.55,0-15.524,14-79.656,35.593-132.15,25.317,20.7,55.947,34.051,57.139,32,1.617-2.784-30.677-13.589-48.286-54.29C229.194,119.2,318.123-1.33,332.084.05Zm-28.8,486.35C303.5,516,279.3,540,249.7,540a53.729,53.729,0,0,1-53.589-53.6C196.1,485.319,303.282,485.319,303.289,486.4Zm93.951-89.7-0.719-.6c-3.864-5.133-4.692-10.89-.529-15.723,0,0,22.64-20.439,22.236-52.8-0.452-36.307-24.057-56.13-24.057-56.13-2.59-5.83.033-14.28,5.861-16.871l0.938-.029c3.767-2.508,9.061.343,14.35,5.873,0,0,26.4,25.625,26.4,66.857,0,43.393-28.2,68.21-28.2,68.21A11.546,11.546,0,0,1,397.24,396.7ZM101.873,256.384l0.037,0.033a11.551,11.551,0,0,1,1.211,16.289S80.48,293.144,80.884,325.5c0.453,36.305,24.059,57.751,24.059,57.751A11.551,11.551,0,0,1,99.08,398.5l-0.046.02a11.546,11.546,0,0,1-15.242-5.863s-26.4-25.624-26.4-66.853c0-43.39,28.2-68.2,28.2-68.2A11.546,11.546,0,0,1,101.873,256.384ZM61.48,213.8a11.2,11.2,0,0,1,1.611,15.757s-40.3,32.3-40.3,95.589c0,60.856,39.658,95.136,39.658,95.136a11.2,11.2,0,1,1-16.626,15.008S0,404.522,0,319.95c0-65.926,45.727-104.534,45.727-104.534A11.2,11.2,0,0,1,61.48,213.8ZM438.539,436.485a11.2,11.2,0,0,1-1.611-15.757s40.284-32.3,40.284-95.588c0-60.856-39.646-95.136-39.646-95.136A11.2,11.2,0,1,1,454.187,215S500,245.769,500,330.34c0,65.925-45.712,104.533-45.712,104.533A11.191,11.191,0,0,1,438.539,436.485Z"/>
  <circle class="feathers-notify-2" cx="145.5" cy="106.625" r="103.156"/>
  <text id="_1" data-name="1" class="feathers-notify-3" transform="translate(144.424 152.899) scale(0.1 0.1)"><tspan x="0">1</tspan></text>
</svg>
